<svg width="32" height="32" viewBox="0 0 32 32" fill="none" xmlns="http://www.w3.org/2000/svg">
<mask id="mask0_252_6312" style="mask-type:alpha" maskUnits="userSpaceOnUse" x="0" y="0" width="32" height="32">
<rect width="32" height="32" fill="#D9D9D9"/>
</mask>
<g mask="url(#mask0_252_6312)">
<path d="M4.51387 16.0008L14.6742 26.1611C14.9767 26.4636 15.1273 26.8324 15.1262 27.2675C15.1253 27.7026 14.9737 28.0788 14.6712 28.3961C14.3539 28.7133 13.9763 28.8718 13.5385 28.8718C13.1008 28.8718 12.7233 28.7133 12.4062 28.3961L1.77921 17.7801C1.52676 17.5277 1.34165 17.2467 1.22388 16.9371C1.10588 16.6278 1.04688 16.3157 1.04688 16.0008C1.04688 15.6859 1.10588 15.3738 1.22388 15.0645C1.34165 14.7549 1.52676 14.4739 1.77921 14.2215L12.4285 3.57214C12.7457 3.25503 13.1199 3.10158 13.5512 3.11181C13.9828 3.12203 14.3571 3.28403 14.6742 3.59781C14.9767 3.91492 15.1315 4.28869 15.1389 4.71914C15.1464 5.14936 14.9915 5.52314 14.6742 5.84047L4.51387 16.0008Z" fill="#1C1B1F"/>
</g>
</svg>
