<svg width="16" height="17" viewBox="0 0 16 17" fill="none" xmlns="http://www.w3.org/2000/svg">
<mask id="mask0_2044_3134" style="mask-type:alpha" maskUnits="userSpaceOnUse" x="0" y="0" width="16" height="17">
<rect y="0.103516" width="16" height="16" fill="#D9D9D9"/>
</mask>
<g mask="url(#mask0_2044_3134)">
<path d="M4.66699 14.7708C4.30033 14.7708 3.98644 14.6403 3.72533 14.3792C3.46421 14.1181 3.33366 13.8042 3.33366 13.4375C3.33366 13.0708 3.46421 12.7569 3.72533 12.4958C3.98644 12.2347 4.30033 12.1042 4.66699 12.1042C5.03366 12.1042 5.34755 12.2347 5.60866 12.4958C5.86977 12.7569 6.00033 13.0708 6.00033 13.4375C6.00033 13.8042 5.86977 14.1181 5.60866 14.3792C5.34755 14.6403 5.03366 14.7708 4.66699 14.7708ZM11.3337 14.7708C10.967 14.7708 10.6531 14.6403 10.392 14.3792C10.1309 14.1181 10.0003 13.8042 10.0003 13.4375C10.0003 13.0708 10.1309 12.7569 10.392 12.4958C10.6531 12.2347 10.967 12.1042 11.3337 12.1042C11.7003 12.1042 12.0142 12.2347 12.2753 12.4958C12.5364 12.7569 12.667 13.0708 12.667 13.4375C12.667 13.8042 12.5364 14.1181 12.2753 14.3792C12.0142 14.6403 11.7003 14.7708 11.3337 14.7708ZM3.46699 2.77083H13.3003C13.5559 2.77083 13.7503 2.88472 13.8837 3.1125C14.017 3.34028 14.0225 3.57083 13.9003 3.80417L11.5337 8.07083C11.4114 8.29306 11.2475 8.46528 11.042 8.5875C10.8364 8.70972 10.6114 8.77083 10.367 8.77083H5.40033L4.66699 10.1042H12.0003C12.1892 10.1042 12.3475 10.1681 12.4753 10.2958C12.6031 10.4236 12.667 10.5819 12.667 10.7708C12.667 10.9597 12.6031 11.1181 12.4753 11.2458C12.3475 11.3736 12.1892 11.4375 12.0003 11.4375H4.66699C4.16699 11.4375 3.78921 11.2181 3.53366 10.7792C3.2781 10.3403 3.26699 9.90417 3.50033 9.47083L4.40033 7.8375L2.00033 2.77083H1.33366C1.14477 2.77083 0.986437 2.70694 0.858659 2.57917C0.730881 2.45139 0.666992 2.29306 0.666992 2.10417C0.666992 1.91528 0.730881 1.75694 0.858659 1.62917C0.986437 1.50139 1.14477 1.4375 1.33366 1.4375H2.41699C2.53921 1.4375 2.65588 1.47083 2.76699 1.5375C2.8781 1.60417 2.96144 1.69861 3.01699 1.82083L3.46699 2.77083Z" fill="#181818"/>
</g>
</svg>
