<svg width="17" height="17" viewBox="0 0 17 17" fill="none" xmlns="http://www.w3.org/2000/svg">
<g clip-path="url(#clip0_2032_1353)">
<path fill-rule="evenodd" clip-rule="evenodd" d="M0.955964 5.00195C1.48393 5.00195 1.91193 4.55424 1.91193 4.00195C1.91193 3.44967 1.48393 3.00195 0.955964 3.00195C0.428 3.00195 0 3.44967 0 4.00195C0 4.55424 0.428 5.00195 0.955964 5.00195ZM3.82393 3.20195C3.3821 3.20195 3.02393 3.56013 3.02393 4.00195C3.02393 4.44378 3.3821 4.80195 3.82393 4.80195H16.2515C16.6933 4.80195 17.0515 4.44378 17.0515 4.00195C17.0515 3.56013 16.6933 3.20195 16.2515 3.20195H3.82393ZM1.91193 10.002C1.91193 10.5542 1.48393 11.002 0.955964 11.002C0.428 11.002 0 10.5542 0 10.002C0 9.44967 0.428 9.00195 0.955964 9.00195C1.48393 9.00195 1.91193 9.44967 1.91193 10.002ZM3.82393 9.20195C3.3821 9.20195 3.02393 9.56013 3.02393 10.002C3.02393 10.4438 3.3821 10.802 3.82393 10.802H16.2515C16.6933 10.802 17.0515 10.4438 17.0515 10.002C17.0515 9.56013 16.6933 9.20195 16.2515 9.20195H3.82393ZM1.91193 16.002C1.91193 16.5542 1.48393 17.002 0.955964 17.002C0.428 17.002 0 16.5542 0 16.002C0 15.4497 0.428 15.002 0.955964 15.002C1.48393 15.002 1.91193 15.4497 1.91193 16.002ZM3.82393 15.202C3.3821 15.202 3.02393 15.5601 3.02393 16.002C3.02393 16.4438 3.3821 16.802 3.82393 16.802H16.2515C16.6933 16.802 17.0515 16.4438 17.0515 16.002C17.0515 15.5601 16.6933 15.202 16.2515 15.202H3.82393Z" fill="#181818"/>
</g>
<defs>
<clipPath id="clip0_2032_1353">
<rect width="17" height="16.9983" fill="white" transform="translate(0 0.00195312)"/>
</clipPath>
</defs>
</svg>
