<svg width="17" height="17" viewBox="0 0 17 17" fill="none" xmlns="http://www.w3.org/2000/svg">
<path d="M1.57305 2C1.57305 1.79372 1.7204 1.7 1.81421 1.7H7.26514C7.35896 1.7 7.50631 1.79372 7.50631 2V6.78999C7.50631 6.99627 7.35896 7.08999 7.26514 7.08999H1.81421C1.7204 7.08999 1.57305 6.99627 1.57305 6.78999V2ZM1.57305 11.2083C1.57305 11.0021 1.7204 10.9083 1.81421 10.9083H7.26514C7.35896 10.9083 7.50631 11.0021 7.50631 11.2083V16C7.50631 16.2063 7.35896 16.3 7.26514 16.3H1.81421C1.7204 16.3 1.57305 16.2063 1.57305 16V11.2083ZM10.2397 2C10.2397 1.79372 10.387 1.7 10.4808 1.7H15.9318C16.0256 1.7 16.1729 1.79372 16.1729 2V6.79166C16.1729 6.99793 16.0256 7.09166 15.9317 7.09166H10.4808C10.387 7.09166 10.2397 6.99793 10.2397 6.79166V2ZM10.2398 11.2083C10.2398 11.0021 10.3871 10.9083 10.481 10.9083H15.9319C16.0257 10.9083 16.173 11.0021 16.173 11.2083V16C16.173 16.2063 16.0257 16.3 15.9319 16.3H10.481C10.3871 16.3 10.2398 16.2063 10.2398 16V11.2083Z" stroke="#787878" stroke-width="1.4" stroke-linejoin="round"/>
</svg>
