<svg width="16" height="17" viewBox="0 0 16 17" fill="none" xmlns="http://www.w3.org/2000/svg">
<path d="M15.0299 8.63806L13.2099 3.30533L14.769 3.01261C14.8103 3.00574 14.8497 2.99065 14.8851 2.96822C14.9204 2.94579 14.9508 2.91648 14.9746 2.88204C14.9983 2.8476 15.0149 2.80874 15.0233 2.76776C15.0317 2.72678 15.0318 2.68453 15.0236 2.64352C15.0081 2.56096 14.9606 2.48787 14.8915 2.44019C14.8223 2.39251 14.7371 2.37409 14.6545 2.38897L8.66629 3.5217V1.4217C8.66629 1.33731 8.63276 1.25638 8.57309 1.19671C8.51342 1.13704 8.43249 1.10352 8.3481 1.10352H7.71174C7.62735 1.10352 7.54642 1.13704 7.48675 1.19671C7.42708 1.25638 7.39356 1.33731 7.39356 1.4217V3.76352L1.29083 4.9217C1.24905 4.92546 1.20841 4.93741 1.17125 4.95688C1.13408 4.97634 1.10112 5.00293 1.07423 5.03514C1.01993 5.10018 0.993692 5.18413 1.00129 5.26852C1.00888 5.3529 1.04969 5.43082 1.11473 5.48512C1.17977 5.53942 1.26372 5.56566 1.34811 5.55806H1.40538L2.79901 5.29079L1.02992 10.5472C1.02384 10.5808 1.02384 10.6153 1.02992 10.649V10.9672C1.02992 11.5579 1.26458 12.1244 1.68228 12.5421C2.09997 12.9598 2.66649 13.1944 3.2572 13.1944C3.84791 13.1944 4.41442 12.9598 4.83212 12.5421C5.24981 12.1244 5.48447 11.5579 5.48447 10.9672V10.649C5.48756 10.6151 5.48756 10.581 5.48447 10.5472L3.6581 5.12533L7.39356 4.41261V13.8308H3.89356C3.80917 13.8308 3.72824 13.8643 3.66857 13.924C3.6089 13.9837 3.57538 14.0646 3.57538 14.149V14.7853C3.57538 14.8697 3.6089 14.9507 3.66857 15.0103C3.72824 15.07 3.80917 15.1035 3.89356 15.1035H12.1663C12.2507 15.1035 12.3316 15.07 12.3913 15.0103C12.4509 14.9507 12.4845 14.8697 12.4845 14.7853V14.149C12.4845 14.0646 12.4509 13.9837 12.3913 13.924C12.3316 13.8643 12.2507 13.8308 12.1663 13.8308H8.66629V4.17079L12.3381 3.47079L10.5754 8.63806C10.5693 8.67173 10.5693 8.70621 10.5754 8.73988V9.05806C10.5754 9.64877 10.81 10.2153 11.2277 10.633C11.6454 11.0507 12.2119 11.2853 12.8026 11.2853C13.3934 11.2853 13.9599 11.0507 14.3776 10.633C14.7953 10.2153 15.0299 9.64877 15.0299 9.05806V8.73988C15.036 8.70621 15.036 8.67173 15.0299 8.63806ZM1.66629 10.649L3.2572 5.92715L4.8481 10.649H1.66629ZM11.2117 8.73988L12.8026 4.08806L14.3936 8.73988H11.2117Z" fill="black"/>
</svg>
